<svg xmlns="http://www.w3.org/2000/svg" xml:space="preserve" id="cat" x="0" y="0" style="enable-background:new 0 0 512 512" version="1.1" viewBox="0 0 512 512" height="204" width="204">  <g>    <g id="_x30_7_00000103981455789712692020000002043481587601970567_">      <g id="outline_00000125594014453291542390000009222000729515739306_">        <g>          <path d="M171.64,421.9c-5.92,0-12.09-0.33-18.48-0.99c-42.64-4.41-52.79-24.09-57.4-44.7      c-4.35-19.42-1.3-33.77-0.21-37.85c-1.35-10.82-5.82-52.88,4.73-64.9c2.27-2.58,5.17-3.95,8.39-3.95      c14.71,0,34.46,8.34,40.71,11.16c5.65-1.94,21.6-6.4,39.5-2.23c6.68-9.17,19.47-24.43,29.31-22.67      c8.09,1.44,14.14,15.13,25.1,43.85c2.95,7.73,5.74,15.03,7.72,18.9c6.87,13.4,15.59,40.27-3.13,69.58      C233.79,410.18,207.07,421.9,171.64,421.9z M108.68,279.51c-0.16,0-0.4,0-0.88,0.55c-5.85,6.66-4.81,37.95-2.2,58.04      c0.1,0.74,0.03,1.48-0.2,2.19c-0.04,0.12-4.3,13.96,0.12,33.74c4.51,20.17,14.23,33.38,48.67,36.94      c23.55,2.44,65.95,2.01,85.27-28.25c16.03-25.1,8.54-48.14,2.66-59.64c-2.23-4.35-4.98-11.55-8.16-19.89      c-4.31-11.3-13.22-34.64-17.7-37.57c-3.41,0.18-13.56,10.4-21.18,21.39c-1.23,1.77-3.45,2.56-5.52,1.95      c-19.79-5.82-38.27,1.67-38.45,1.75c-1.31,0.54-2.8,0.51-4.09-0.11C146.78,290.48,123.73,279.51,108.68,279.51z" style="fill:#894e0e"></path>        </g>        <g>          <path d="M103.17,243.75c-0.26,0-0.51,0-0.77-0.01c-7.71-0.29-14.32-4.73-18.22-12.21      c-2.01-2.75-10.64-16.2-1.83-33.83c4.37-8.74,9.77-13.44,14.99-17.99c5.49-4.79,11.17-9.74,16.53-20.29      c6.19-12.19,1.29-15.33-7.61-21.04c-3.04-1.95-6.19-3.97-8.84-6.54c-5.82-5.66-7.38-13.57-3.88-19.69      c1.69-2.94,8.8-12.1,29.4-6.39c13.69,3.79,25.59,14.51,31.84,28.67c5.87,13.29,5.8,27.68-0.18,39.48      c-7.11,14.03-16.09,21.01-23.3,26.61c-5.42,4.21-10.1,7.85-13.03,13.58c-2.53,4.96-3.86,8.36-3.95,10.1      c-0.03,0.51-0.03,0.56,1.06,1.98c0.61,0.79,1.36,1.77,2.11,3.04c1.43,2.42,1.38,5.38-0.13,7.91      C114.99,241.09,109.23,243.75,103.17,243.75z M110.71,113.91c-4.77,0-7.5,1.48-8.5,3.22c-1.2,2.09-0.32,5.12,2.17,7.54      c1.92,1.87,4.52,3.53,7.26,5.29c8.53,5.47,21.41,13.73,11.13,33.98c-6.24,12.29-12.95,18.14-18.88,23.3      c-4.9,4.27-9.13,7.95-12.61,14.92c-6.83,13.66,0.93,23.43,1.01,23.53c0.23,0.29,0.43,0.6,0.6,0.92c2.7,5.39,6.54,6.82,9.29,7.07      c2.41,0.22,4.42-0.4,5.58-1.01c-0.11-0.14-0.22-0.28-0.33-0.43c-4.29-5.59-4.65-9.86,1.92-22.72c3.94-7.71,9.7-12.18,15.8-16.92      c7.09-5.51,14.42-11.21,20.52-23.24c4.62-9.12,4.6-20.39-0.05-30.92c-5.05-11.44-14.53-20.07-25.37-23.07      C116.46,114.34,113.29,113.91,110.71,113.91z" style="fill:#894e0e"></path>        </g>        <g>          <path d="M173.29,257.33c-1.98,0-3.86-1.19-4.64-3.14c-0.05-0.12-2.19-4.87-13.17-19.42      c-5.8-7.68-8-11.96-9.77-15.39c-1.91-3.71-3.17-6.17-8.52-11.83c-2.78-2.95-5.4-4.5-7.57-4.5c0,0-0.01,0-0.01,0      c-1.93,0-3.17,1.29-3.22,1.35l0.07-0.08l-7.62-6.47c0.4-0.47,4.1-4.62,10.39-4.79c5.21-0.13,10.32,2.43,15.23,7.63      c6.32,6.69,8.09,10.14,10.14,14.12c1.67,3.26,3.57,6.95,8.86,13.94c11.7,15.5,14.11,20.82,14.47,21.73      c1.03,2.56-0.22,5.47-2.79,6.5C174.53,257.22,173.9,257.33,173.29,257.33z" style="fill:#894e0e"></path>        </g>        <g>          <path d="M157.57,287.41c-3.52-1.97-9.33-8.45-6.1-18.88c1.7-5.49,4.87-7.9,7.22-8.95c1.83-0.82,3.62-1.05,5.21-1      c8.36-15.87,27.87-20.85,28.75-21.06c2.68-0.66,5.39,0.98,6.05,3.66c0.66,2.68-0.98,5.39-3.65,6.05      c-0.34,0.09-18.43,4.83-23.51,18.72c-0.49,1.34-1.44,2.46-2.77,2.98s-2.73,0.5-4.01-0.15c-0.17-0.07-1.3-0.39-2.02-0.05      c-0.64,0.3-1.27,1.31-1.72,2.77c-1.51,4.86,0.79,6.78,1.53,7.25l-0.11-0.07L157.57,287.41z" style="fill:#894e0e"></path>        </g>        <g>          <path d="M185.18,459.19c-18.23,0-32.52-12.42-41.06-19.83c-1.09-0.94-2.07-1.8-2.95-2.53      c-3.22-2.66-3.53-2.72-8.65-3.66c-4-0.74-10.69-1.97-22.63-5.34c-33.29-9.4-61.42-34.5-75.25-67.15      c-15.06-35.57-17.71-73.42-14.76-87.81c0.85-4.14,0.59-6.22,0.23-9.09c-0.63-5-1.4-11.21,2.7-28.06      c4.13-16.94,12.92-28.06,23.5-29.76c6.53-1.04,12.68,1.97,16.46,8.05c2.86,4.6,3.94,8.81,4.06,12.45      c8.18-3.54,16.75-5.77,18.14-6.12c2.67-0.68,5.39,0.94,6.07,3.62c0.68,2.68-0.94,5.4-3.62,6.07      c-5.16,1.31-19.83,5.77-25.68,10.69c-2,1.68-4.97,1.54-6.8-0.34c-1.83-1.87-1.9-4.84-0.17-6.8c0.45-0.54,4.64-6.02-0.5-14.3      c-1.68-2.7-3.83-3.86-6.39-3.46c-5.15,0.82-11.9,8.02-15.37,22.25c-3.67,15.06-3.05,20.04-2.5,24.44      c0.41,3.24,0.83,6.58-0.36,12.34c-2.33,11.38-0.57,47.08,14.17,81.9c12.65,29.88,38.35,52.84,68.75,61.42      c11.49,3.24,17.65,4.38,21.73,5.13c6.06,1.12,8.22,1.67,13.21,5.79c0.93,0.77,1.98,1.68,3.14,2.69      c7.48,6.5,20.01,17.38,34.5,17.38c11.15,0,17.57-3.39,19.86-6.56c1.31-1.81,1.57-3.82,0.79-6.14      c-2.37-7.11-13.5-14.33-17.59-16.52c-2.43-1.3-3.36-4.33-2.06-6.76c1.3-2.43,4.32-3.36,6.76-2.06      c1.86,0.99,18.33,10.03,22.38,22.18c1.79,5.36,1.02,10.74-2.17,15.15C208.24,455.28,198.04,459.19,185.18,459.19z" style="fill:#894e0e"></path>        </g>        <g>          <path d="M262.88,415.37c-15.47,0-32.11-10.53-34.3-11.96c-2.31-1.51-2.96-4.61-1.45-6.92      c1.51-2.31,4.61-2.96,6.92-1.45c6.01,3.91,23.93,13.22,34.63,9.44c4.96-1.76,8.16-5.79,7.96-10.05      c-0.36-7.66-10.47-14.72-27.03-18.88c-2.68-0.67-4.3-3.39-3.63-6.07s3.4-4.3,6.07-3.63c30.38,7.64,34.3,22.2,34.58,28.11      c0.41,8.69-5.46,16.7-14.61,19.94C269.11,414.93,266.02,415.37,262.88,415.37z" style="fill:#894e0e"></path>        </g>        <g>          <path d="M198.14,368.55c-1.03,0-2.06-0.32-2.94-0.96c-2.02-1.47-6.75-5.37-7.1-9.85c-0.16-2.06,0.55-3.99,2.01-5.44      c3.19-3.19,9.22-4.61,13.44-3.16c2.86,0.98,4.78,3.25,5.13,6.08c0.72,5.76-5.09,10.59-7.63,12.4      C200.18,368.24,199.16,368.55,198.14,368.55z M198.78,355.8L198.78,355.8C198.78,355.8,198.78,355.8,198.78,355.8z" style="fill:#894e0e"></path>        </g>        <g>          <path d="M189.89,373.99c-4.53,0-7.78-2.39-9.15-4.11l7.81-6.25c0,0-0.04-0.07-0.14-0.17      c0.24,0.25,0.98,0.77,2.48,0.38c1.7-0.44,2.3-1.39,2.46-1.74c0.34-1.68,1.49-2.87,3.11-3.47c1.65-0.61,3.46-0.09,4.84,1.03      c0.87,0.69,2.64,1.63,3.9,1.67c0.33-2.31,2.24-4.14,4.66-4.28c2.76-0.15,5.12,1.94,5.28,4.7c0.19,3.31-1.81,8.56-8.14,9.47      c-2.71,0.38-5.28-0.24-7.34-1.08c-1.43,1.37-3.45,2.66-6.24,3.39C192.16,373.85,190.99,373.99,189.89,373.99z" style="fill:#894e0e"></path>        </g>        <g>          <path d="M197.96,402.53c-1.19,0-2.39-0.2-3.58-0.61c-11.97-4.09-8.5-27.2-7.15-34.18c0.52-2.71,3.15-4.48,5.86-3.96      c2.71,0.52,4.48,3.15,3.96,5.86c-2.1,10.93-1.44,21.68,0.57,22.82c0.26,0.09,0.67,0.23,1.58-0.67      c3.22-3.17,5.82-13.27,2.33-23.97c-0.86-2.63,0.58-5.45,3.2-6.3c2.63-0.86,5.45,0.58,6.3,3.2c4.14,12.7,2.07,27.4-4.82,34.19      C203.81,401.29,200.93,402.53,197.96,402.53z" style="fill:#894e0e"></path>        </g>        <g>          <path d="M297.38,353.42c-5.1,0-8.13-1.92-9.83-3.65c-0.68-0.7-1.23-1.44-1.67-2.19      c-5.08,1.62-11.55,1.68-16.76-3.69c-4.26-4.39-5.61-8.97-5.62-12.78c-0.29-0.13-0.59-0.28-0.89-0.44      c-3.4-1.89-5.62-5.52-6.6-10.77c-1.75-9.32,3.86-15.08,9.27-17.47c2.73-7.17,9.64-15.7,21.01-25.95      c10.5-9.47,20.34-21.78,20.44-21.9c1.72-2.16,4.87-2.52,7.03-0.8c2.16,1.72,2.52,4.87,0.8,7.03      c-0.42,0.53-10.46,13.08-21.56,23.1c-14.61,13.18-18.08,20.45-18.85,23.61c-0.45,1.84-1.9,3.27-3.74,3.7      c-1.64,0.42-5.48,1.95-4.56,6.85c0.48,2.54,1.24,3.62,1.62,3.86c0.11,0.07,0.25,0.07,0.35,0.06c1.97-0.96,4.18-0.52,5.68,1.1      c1.51,1.64,1.58,4.07,0.43,5.98c-0.34,0.75-1.41,3.95,2.39,7.88c3.65,3.76,9.34-0.11,9.98-0.57c1.64-1.17,3.86-1.36,5.57-0.29      c1.71,1.06,2.65,2.94,2.33,4.93c-0.02,0.3,0.07,1.34,0.53,1.79c0.21,0.2,1.1,0.84,3.87,0.57c1.76-0.17,2.95-0.67,3.55-1.47      c0.92-1.24,0.75-3.42,0.62-4.08c-0.34-1.53,0.06-3.1,1.07-4.3c1.01-1.2,2.53-1.82,4.1-1.73c0.07,0.01,10.26,0.28,23.47-8.77      c13.15-9.02,17.41-26.82,17.46-27c0.62-2.69,3.3-4.36,5.99-3.75c2.69,0.62,4.37,3.29,3.75,5.98      c-0.2,0.88-5.12,21.75-21.55,33.01c-10.14,6.96-19,9.33-24.34,10.13c-0.27,2-0.95,4.27-2.45,6.34      c-1.61,2.23-4.78,5.01-10.69,5.59C298.79,353.38,298.07,353.42,297.38,353.42z M267.69,322.03L267.69,322.03L267.69,322.03z" style="fill:#894e0e"></path>        </g>        <g>          <path d="M350.1,447.43c-9.42,0-16-3.65-19.86-6.7c-11.98-9.47-17.27-27.98-12.87-45.01      c5.28-20.43,13.71-30.77,17.78-34.81c-0.32-6.18,1.83-15.2,11.89-18.42c6.28-2.01,11.31-1.07,14.95,0.81      c1-1.32,2.31-2.6,4.01-3.61c4.04-2.4,8.97-2.6,14.66-0.58c9.64,3.42,13.2,10.3,14.06,16.05c1.26,0.17,2.6,0.54,3.95,1.2      c2.56,1.26,6,4.06,7.83,10.27c1.54,5.23,1.29,9.73-0.74,13.39c-0.83,1.5-1.85,2.64-2.85,3.5c2.02,10.58,4.04,39.73-29.26,57.3      C364.44,445.69,356.6,447.43,350.1,447.43z M343.39,366.93c-0.26,0.2-10.37,8.2-16.34,31.3c-3.38,13.1,0.57,27.68,9.39,34.66      c8.08,6.38,19.33,6.07,32.54-0.9c33.39-17.62,23.9-48,23.47-49.29c-0.45-1.36-0.47-2.81,0.25-4.05      c0.71-1.21,1.72-2.04,3.08-2.33c1.75-0.72,2.17-3.27,1.12-6.86c-0.43-1.48-1.24-3.38-2.59-4.08c-1.29-0.67-2.87-0.14-2.89-0.14      c-1.72,0.75-3.58,0.42-5.03-0.76c-1.45-1.19-1.98-3.14-1.59-4.98c0.23-1.25,1.02-7.93-7.5-10.96c-1.88-0.67-4.47-1.25-6.17-0.27      c-1.88,1.09-2.44,3.87-2.45,3.9c-0.33,2.08-1.92,3.7-3.98,4.1c-2.03,0.4-4.09-0.53-5.19-2.29c-0.48-0.72-3.11-3.99-9.45-1.96      c-6,1.92-5.02,8.57-4.77,9.89C345.7,363.81,344.95,365.78,343.39,366.93z" style="fill:#894e0e"></path>        </g>        <g>          <path d="M235.25,434.21c-11.37,0-17.8-3.83-21.26-7.22c-4.36-4.26-6.53-10.07-6.27-16.82      c0.1-2.76,2.38-4.93,5.18-4.81c2.76,0.1,4.91,2.42,4.81,5.18c-0.15,3.9,0.95,7.03,3.27,9.3c3.34,3.27,9.21,4.76,16.93,4.28      c13.86-0.83,17.62-13.39,17.77-13.93c0.76-2.64,3.51-4.2,6.16-3.45c2.65,0.74,4.21,3.46,3.48,6.11      c-1.88,6.9-9.91,20.23-26.81,21.25C237.39,434.18,236.3,434.21,235.25,434.21z" style="fill:#894e0e"></path>        </g>        <g>          <path d="M309.44,430.2c-27.82,0-49.13-13.58-50.16-14.25c-2.32-1.5-2.98-4.6-1.47-6.92      c1.5-2.31,4.59-2.97,6.91-1.48l0,0c0.26,0.17,26.3,16.65,56.47,11.69c2.72-0.45,5.3,1.4,5.75,4.12s-1.4,5.3-4.12,5.75      C318.23,429.88,313.76,430.2,309.44,430.2z" style="fill:#894e0e"></path>        </g>        <g>          <path d="M440.71,376.9c-2.35,0-4.45-1.67-4.91-4.07c-0.51-2.71,1.27-5.33,3.98-5.84      c23.23-4.41,37.32-15.98,41.89-34.39c6.43-25.93-8.23-56.71-21.58-67.36c-11.15-8.9-23.01-12.56-33.41-10.31      c-8.49,1.84-15.5,7.43-19.73,15.74c-5.7,11.2-5.41,27.38,0.69,37.65c3.39,5.72,8.01,8.7,13.72,8.87      c9.65,0.29,17.8-3.35,21.86-9.71c2.48-3.88,2.9-8.09,1.17-11.56c-3.75-7.5-8.73-6.52-9.69-6.25l0.1-0.03l-3.16-9.49      c4.76-1.59,15.42-1.27,21.7,11.29c3.3,6.59,2.67,14.59-1.68,21.41c-5.97,9.35-17.38,14.71-30.58,14.33      c-9.1-0.27-16.92-5.15-22.03-13.76c-7.82-13.18-8.24-33.07-1-47.29c5.62-11.04,15.04-18.49,26.53-20.98      c13.39-2.9,28.22,1.46,41.76,12.27c17.48,13.96,32.07,49.25,25.04,77.58c-3.84,15.5-15.59,35.33-49.73,41.81      C441.33,376.87,441.02,376.9,440.71,376.9z" style="fill:#894e0e"></path>        </g>        <g>          <path d="M394.57,423.81c-1.48,0-2.84-0.17-4.06-0.52c-2.66-0.76-4.19-3.53-3.43-6.18c0.76-2.66,3.53-4.19,6.18-3.43      c5.67,1.62,27.89-7.56,38.98-34.05c10.72-25.61-0.04-58.51-0.15-58.84c-0.88-2.62,0.54-5.45,3.16-6.33      c2.62-0.87,5.45,0.54,6.33,3.16c0.5,1.49,12.05,36.83-0.11,65.87C430.47,409.76,407.86,423.81,394.57,423.81z" style="fill:#894e0e"></path>        </g>        <g>          <path d="M250.34,219.79c-3.55,0-5.93-1.22-7.38-2.37c-3.46-2.74-3.89-6.63-3.95-7.38l9.98-0.69      c0,0,0-0.07-0.02-0.19c0.04,0.23,0.16,0.93,2.59,0.53c0.92-0.15,1.52-0.42,1.79-0.82c0.33-0.48,0.39-1.24,0.39-1.78      c-0.08-0.49-0.13-0.96-0.15-1.42c-0.14-2.6,1.75-4.87,4.33-5.22c2.58-0.35,5,1.35,5.55,3.9c0.04,0.17,0.15,0.76,0.22,1.61      c0.24,1.19,0.89,2.59,2.61,2.59c3.38,0,3.94-2.02,3.95-2.04c0.69-2.67,3.43-4.28,6.09-3.58c2.67,0.69,4.28,3.42,3.58,6.09      c-0.85,3.3-4.8,9.53-13.63,9.53c-2.68,0-4.88-0.71-6.66-1.85c-1.46,1.25-3.54,2.38-6.47,2.85      C252.15,219.72,251.21,219.79,250.34,219.79z" style="fill:#894e0e"></path>        </g>        <g>          <path d="M262.83,238.5c-5.26,0-8.61-2.29-10.53-4.28c-6.23-6.48-5.26-17.78-5.13-19.04      c0.29-2.75,2.74-4.74,5.49-4.46c2.74,0.28,4.74,2.73,4.46,5.48c-0.2,2.03-0.18,8.44,2.4,11.11c0.61,0.63,1.6,1.33,3.88,1.19      c2.19-0.14,3.61-0.68,4.23-1.6c1.28-1.91,0.79-6.19-1.43-12.73c-0.89-2.61,0.51-5.45,3.12-6.34c2.61-0.89,5.45,0.51,6.34,3.12      c1.48,4.35,4.95,14.53,0.28,21.51c-1.68,2.51-5.11,5.59-11.91,6.02C263.62,238.49,263.22,238.5,262.83,238.5z" style="fill:#894e0e"></path>        </g>        <g>          <path d="M253.01,260.61c-2.23,0-4.47-0.02-6.75-0.07c-60.44-1.17-72.49-31.12-74.87-43.94      c-2.17-11.73,2.43-24.15,4.35-28.63c-2.15-9.64-10.29-54.97,18.76-85.85c29.08-30.93,79.74-26.95,90.18-25.76      c4.85-2.92,20.32-11.93,36.8-18.34c19.77-7.69,28.29-5.47,34.03-2.28c6.23,3.46,18.59,29.77,20.76,51.66      c1.94,19.55-3.65,39.21-5.36,44.63c1.69,7.44,8.17,40.79-5.02,66.77C352.32,245.51,311.37,260.61,253.01,260.61z M185.49,190.68      L185.49,190.68c-0.06,0.13-6.3,13.08-4.26,24.1c1.93,10.41,12.15,34.74,65.23,35.77c57.14,1.11,98.42-12.45,110.52-36.26      c12.88-25.37,3.99-60.85,3.9-61.2c-0.24-0.95-0.2-1.96,0.12-2.88c0.07-0.21,7.33-21.55,5.32-41.8      c-1.93-19.52-12.6-40.93-15.89-44.03c-2.52-1.39-7.81-3.82-25.32,2.99c-18.6,7.23-36.49,18.33-36.67,18.44      c-1,0.62-2.2,0.87-3.37,0.7c-0.54-0.08-55.03-7.56-83.28,22.48c-28.12,29.9-16.07,77.76-15.95,78.24      C186.14,188.37,186.02,189.6,185.49,190.68z M350.32,64.27L350.32,64.27C350.32,64.27,350.32,64.27,350.32,64.27z" style="fill:#894e0e"></path>        </g>        <g>          <path d="M179.48,150.05c-1.2,0-2.41-0.43-3.36-1.31c-0.67-0.61-16.3-15.29-14.68-43.27      c1.36-23.51,8.52-43.04,16.65-45.44c5.17-1.52,42.96,3.56,59.83,21.52c1.89,2.01,1.79,5.18-0.22,7.07      c-2.01,1.89-5.18,1.79-7.07-0.22c-12.69-13.51-42.42-18.73-49.23-18.73c-0.08,0-0.17,0-0.24,0c-2.42,2.46-8.47,14.43-9.74,36.38      c-1.33,23.03,10.96,34.85,11.48,35.34c2,1.88,2.12,5.04,0.25,7.06C182.17,149.51,180.83,150.05,179.48,150.05z" style="fill:#894e0e"></path>        </g>        <g>          <path d="M405.36,265.62c-1.66,0-3.28-0.82-4.23-2.32c-15.03-23.71-44.25-35.5-44.55-35.62      c-2.57-1.02-3.82-3.92-2.81-6.49c1.02-2.57,3.93-3.82,6.49-2.81c1.32,0.52,32.56,13.13,49.31,39.56      c1.48,2.33,0.79,5.42-1.55,6.9C407.2,265.36,406.28,265.62,405.36,265.62z" style="fill:#894e0e"></path>        </g>      </g>    </g>    <g>      <g>        <path d="M210.07,360.56c-0.82,0.04-1.46,0.74-1.43,1.56c0.02,0.54-0.12,2.32-2.57,2.67     c-1.97,0.28-4.01-0.58-5.38-1.35c2.01-1.74,4.88-4.79,4.51-7.79c-0.19-1.51-1.18-2.65-2.79-3.2c-2.92-1-7.61,0.11-9.83,2.33     c-0.73,0.73-1.07,1.66-0.99,2.7c0.2,2.53,3.07,5.21,4.7,6.54c-0.57,0.98-1.86,2.53-4.53,3.23c-3.85,1.01-5.86-1.3-5.96-1.42     c-0.52-0.64-1.46-0.74-2.1-0.22c-0.65,0.52-0.75,1.46-0.23,2.11c0.11,0.13,2.29,2.8,6.39,2.8c0.14,0,0.3-0.02,0.45-0.03     c-1.06,6.6-3.27,25.25,5.21,28.14c0.82,0.28,1.64,0.42,2.45,0.42c2.06,0,4.06-0.89,5.8-2.61c4.97-4.9,7.82-16.95,4.39-29.1     c2.89-1.14,3.57-3.88,3.49-5.36C211.59,361.14,210.88,360.54,210.07,360.56z" style="fill:#894e0e"></path>      </g>      <g>        <path d="M201.66,394.28c-1.62,1.6-3.37,2.1-5.17,1.48c-5.33-1.82-4.72-16.5-3.03-25.92     c2.83-0.99,4.43-2.74,5.28-4.08c1.48,0.89,3.87,2.03,6.45,2.07C208.4,378.88,205.95,390.05,201.66,394.28z" style="fill:#894e0e"></path>      </g>      <g>        <path d="M355.18,297.45c-0.19,0.83-4.81,20.41-20.11,30.9c-12,8.23-21.84,9.66-25.73,9.88     c0.11,1.88-0.08,4.9-1.92,7.43c-1.73,2.4-4.49,3.8-8.2,4.16c-0.65,0.06-1.28,0.1-1.88,0.1c-3.14,0-5.59-0.87-7.28-2.6     c-1.33-1.35-1.92-2.98-2.18-4.33c-4.28,2.22-11.12,3.74-16.23-1.54c-4.99-5.14-4.96-10.12-4.33-12.99     c-0.9-0.05-1.94-0.27-2.99-0.85c-2.45-1.36-4.08-4.17-4.87-8.36c-1.61-8.61,4.49-12.84,8.61-14.14     c2.03-6.79,8.94-15.54,20.58-26.04c10.71-9.66,20.73-22.2,20.83-22.32c0.52-0.65,1.46-0.75,2.11-0.24     c0.65,0.52,0.75,1.46,0.24,2.11c-0.1,0.13-10.27,12.85-21.17,22.68c-11.51,10.38-18.4,19.16-19.9,25.38     c-0.13,0.55-0.57,0.98-1.12,1.11c-0.36,0.08-8.85,2.19-7.22,10.9c0.6,3.19,1.75,5.36,3.34,6.27c1.58,0.9,3.16,0.34,3.23,0.32     c0.58-0.21,1.25-0.04,1.66,0.43c0.41,0.47,0.48,1.15,0.18,1.7c-0.12,0.23-2.98,5.81,2.98,11.95c5.85,6.03,14.19,0.09,14.54-0.17     c0.48-0.35,1.13-0.38,1.64-0.08c0.51,0.3,0.8,0.88,0.73,1.47c0,0.02-0.29,2.84,1.51,4.66c1.35,1.37,3.61,1.91,6.71,1.6     c2.81-0.27,4.84-1.26,6.05-2.92c2.05-2.82,1.21-6.8,1.2-6.84c-0.1-0.46,0.02-0.94,0.32-1.29c0.3-0.36,0.76-0.55,1.22-0.53     c0.11,0.01,11.3,0.45,25.64-9.38c14.32-9.82,18.84-28.91,18.89-29.1c0.18-0.81,0.98-1.31,1.8-1.13     C354.86,295.84,355.36,296.64,355.18,297.45z" style="fill:#894e0e"></path>      </g>      <g>        <path d="M167.92,105.85c1.47-25.4,9.28-38.78,12-39.58c3.06-0.89,35.94,3.68,51.53,18.04     c-12.41,3.72-24.76,9.95-34.41,20.21c-10.52,11.19-15.9,24.58-18.41,37.36C174.86,137.3,166.81,125.13,167.92,105.85z" style="fill:#f8920d"></path>      </g>      <g>        <path d="M177.78,215.42c-2.26-12.2,4.49-26.14,4.56-26.28c0.16-0.32,0.2-0.69,0.11-1.04     c-0.13-0.5-12.73-50.13,16.79-81.52c19.68-20.93,51.22-24.45,70.24-24.45c9.52,0,15.9,0.88,16.09,0.91     c0.35,0.05,0.71-0.02,1.01-0.21c0.18-0.11,18.32-11.37,37.25-18.73c19.59-7.62,25.62-4.27,28.51-2.66     c3.33,1.85,15.32,25.13,17.45,46.62c2.08,21.05-5.42,43.07-5.5,43.29c-0.1,0.28-0.11,0.58-0.03,0.87     c0.09,0.37,9.34,37.04-4.17,63.66c-12.71,25.04-55.21,39.31-113.7,38.18C190.73,252.97,179.87,226.67,177.78,215.42z" style="fill:#f8920d"></path>      </g>      <g>        <path d="M88.16,200.61c3.79-7.59,8.48-11.67,13.44-16c5.68-4.95,12.13-10.57,18.05-22.25     c8.85-17.43-1.11-23.82-9.9-29.45c-2.77-1.78-5.64-3.62-7.81-5.73c-3.66-3.56-4.77-8.3-2.77-11.79     c1.88-3.28,5.94-4.97,11.47-4.97c3.1,0,6.65,0.53,10.55,1.61c11.83,3.28,22.16,12.64,27.63,25.03     c5.08,11.5,5.06,23.86-0.03,33.92c-6.45,12.73-14.44,18.94-21.49,24.42c-1.32,1.03-2.62,2.04-3.89,3.08     c-0.99,0.67-1.61,1.3-1.83,1.54c-3.56,3.09-6.74,6.51-9.11,11.14c-6.44,12.61-5.28,15.06-2.26,18.99     c0.55,0.71,1.12,1.45,1.66,2.38c0.15,0.26,0.27,0.63-0.11,1.28c-1.06,1.78-4.83,3.61-9.13,3.44c-3.18-0.12-9.08-1.45-12.87-9.04     c-0.05-0.1-0.11-0.19-0.18-0.27c-0.11-0.14-1-1.27-1.96-3.19c-0.05-0.15-0.12-0.29-0.2-0.41     C85.24,219.75,82.88,211.18,88.16,200.61z" style="fill:#fff"></path>      </g>      <g>        <path d="M109.76,132.92c8.79,5.63,18.74,12.02,9.9,29.45c-5.93,11.68-12.37,17.29-18.05,22.25     c-0.69,0.6-1.37,1.2-2.05,1.8c5.06,0.61,10.22,0.47,15.25-0.2c8.04-1.07,16.03-3.54,23.16-7.44c4.27-2.33,8.14-5.19,11.27-8.71     c4.65-9.89,4.53-21.85-0.39-33.01c-5.47-12.39-15.8-21.75-27.63-25.03c-3.9-1.08-7.45-1.61-10.55-1.61     c-5.53,0-9.59,1.69-11.47,4.97c-2.01,3.5-0.89,8.24,2.77,11.79C104.12,129.3,106.99,131.14,109.76,132.92z" style="fill:#ddd"></path>      </g>      <g>        <path d="M209.15,435.38c1.12,3.37,0.68,6.58-1.27,9.29c-3.62,5.02-12.1,8.02-22.7,8.02     c-15.8,0-28.94-11.42-36.79-18.24c-1.13-0.98-2.16-1.87-3.07-2.63c-4.52-3.74-6.17-4.04-11.61-5.04     c-4.14-0.76-10.4-1.92-22.04-5.21c-31.41-8.87-57.96-32.58-71.03-63.43c-15.04-35.53-16.79-72.22-14.38-83.97     c1.06-5.19,0.7-8.11,0.31-11.2c-0.59-4.7-1.26-10.02,2.57-25.71c4.11-16.85,12.1-23.9,18.21-24.88c3.97-0.63,7.49,1.16,9.91,5.06     c6.68,10.74,0.42,18.16,0.15,18.46c-0.52,0.59-0.5,1.48,0.05,2.04c0.55,0.56,1.44,0.61,2.04,0.1c6.58-5.53,21.63-9.92,25.91-11.1     c0.79,1.43,1.47,2.37,1.74,2.72c4.49,8.85,11.55,10.42,15.37,10.56c0.21,0.01,0.43,0.01,0.64,0.01c4.82,0,9.45-2.01,11.18-4.91     c0.87-1.46,0.91-3,0.12-4.34c-0.64-1.08-1.29-1.93-1.87-2.68c-2.21-2.87-3.31-4.32,2.55-15.8c2.51-4.91,6-8.32,10.08-11.65     c0.97-0.63,2.39-1.27,4.21-1.31c3.28-0.07,6.71,1.82,10.28,5.6c5.69,6.02,7.12,8.79,9.09,12.63c1.71,3.32,3.83,7.44,9.45,14.89     c11.51,15.24,13.61,20.18,13.63,20.22c0.05,0.12,0.11,0.21,0.18,0.31c-2.43,2.56-4.58,5.59-6.1,9.17     c-1.41-0.34-3.64-0.58-5.85,0.41c-2.47,1.1-4.25,3.39-5.31,6.79c-1.83,5.9-0.15,10.13,1.94,12.62c-3.71,0.88-6.36,1.82-7.53,2.26     c-3.92-1.83-25.25-11.44-40.55-11.44c-2.21,0-4.15,0.93-5.76,2.76c-10,11.38-4.4,58.08-3.8,62.84     c-0.71,2.39-4.45,16.65,0.07,36.83c4.33,19.33,13.91,37.8,54.34,41.99c5.19,0.54,11.25,0.94,17.78,0.94     c6.04,0,12.49-0.35,19.04-1.24C192.95,418.6,206.16,426.41,209.15,435.38z" style="fill:#fff"></path>      </g>      <g>        <path d="M40.63,358.14c0.3,0.71,0.61,1.4,0.93,2.1c1.27-0.37,2.54-0.77,3.78-1.19     c14.19-4.82,27.44-12.74,39.02-22.2c4.65-3.8,9.21-7.93,13.37-12.42c-1.19-16.1-1.72-40.8,5.19-48.67     c1.61-1.83,3.55-2.76,5.76-2.76c2.59,0,5.35,0.28,8.18,0.75c-0.1-3.19-0.34-6.37-0.72-9.5c-1.03-8.43-3.15-17.18-6.72-25.17     c-1.87,0.74-4.03,1.16-6.24,1.16c-0.21,0-0.42,0-0.64-0.01c-3.82-0.14-10.88-1.71-15.37-10.56c-0.27-0.35-0.96-1.29-1.74-2.72     c-4.28,1.17-19.33,5.57-25.91,11.1c-0.6,0.5-1.49,0.46-2.04-0.1c-0.55-0.56-0.57-1.45-0.05-2.04c0.27-0.31,6.53-7.72-0.15-18.46     c-2.42-3.9-5.94-5.69-9.91-5.06c-6.11,0.98-14.1,8.02-18.21,24.88c-3.83,15.68-3.16,21.01-2.57,25.71     c0.39,3.09,0.75,6.01-0.31,11.2C23.84,285.92,25.59,322.61,40.63,358.14z" style="fill:#ddd"></path>      </g>      <g>        <path d="M233.92,399.06c4.11-3.61,7.84-7.86,11.02-12.84c2.97-4.65,5.2-9.24,6.84-13.71     c24.93,6.61,28.15,17.39,28.36,21.77c0.27,5.8-3.86,11.23-10.29,13.51C257.67,412.09,239.6,402.4,233.92,399.06z" style="fill:#ddd"></path>      </g>      <g>        <path d="M242.41,384.6c-3.35,5.25-7.36,9.64-11.8,13.31c-0.16,0.09-0.31,0.2-0.44,0.35     c-11.38,9.24-25.62,13.82-39.53,15.8c-0.19-0.01-0.37,0.02-0.54,0.08c-13.39,1.85-26.43,1.33-36.27,0.31     c-36.4-3.77-47.01-18.58-51.73-39.66c-4.67-20.83-0.08-35.44-0.04-35.58c0.07-0.21,0.09-0.44,0.06-0.66     c-0.06-0.5-6.39-50.07,3.04-60.8c1.03-1.17,2.17-1.74,3.51-1.74c15.86,0,39.61,11.31,39.85,11.42c0.39,0.18,0.83,0.2,1.23,0.03     c0.2-0.08,19.73-8.07,40.78-1.87c0.62,0.18,1.29-0.05,1.66-0.59c6.5-9.39,19.01-23.9,24.86-22.84     c5.36,0.96,14.27,24.31,20.17,39.77c3.15,8.24,5.86,15.36,8.01,19.54C251.47,333.64,259.38,358.02,242.41,384.6z" style="fill:#fff"></path>      </g>      <g>        <path d="M172.5,317c3.82,20.51,13.35,44.89,35.5,51.03c8.78,2.44,18.12,1.81,26.94-0.1     c5.62-1.22,11.1-2.95,16.48-4.99c3.66-17.65-1.7-32.72-6.18-41.46c-2.14-4.18-4.86-11.3-8.01-19.54     c-5.9-15.46-14.81-38.81-20.17-39.77c-5.84-1.06-18.36,13.45-24.86,22.84c-0.37,0.53-1.04,0.77-1.66,0.59     c-7.1-2.09-14.03-2.56-20.1-2.27C169.88,294.58,170.44,305.93,172.5,317z" style="fill:#ddd"></path>      </g>      <g>        <path d="M238.12,427.62c-8.75,0.53-15.52-1.3-19.59-5.28c-2.89-2.82-4.36-6.75-4.32-11.36     c6.12-2.48,11.96-5.71,17.25-9.9c3.49,2.15,15.58,9.12,27.44,10.52C258.05,414.23,253.17,426.71,238.12,427.62z" style="fill:#f8920d"></path>      </g>      <g>        <path d="M370.63,435.08c-18.36,9.69-29.9,5.65-36.35,0.55c-9.86-7.8-14.33-23.9-10.61-38.28     c6.39-24.74,17.5-33.13,17.64-33.23c0.48-0.35,0.71-0.94,0.59-1.52c-0.09-0.45-2.14-10.94,7.13-13.91     c9.39-3,13.31,3.16,13.47,3.41c0.32,0.54,0.95,0.82,1.57,0.7c0.62-0.12,1.1-0.61,1.2-1.23c0.01-0.04,0.75-4.32,4.09-6.3     c2.3-1.36,5.38-1.37,9.14-0.03c11.84,4.2,9.84,14.55,9.75,14.99c-0.12,0.54,0.07,1.1,0.5,1.46s1,0.46,1.52,0.25     c0.03-0.01,2.88-1.06,5.56,0.26c2.03,1,3.53,3.1,4.46,6.26c2.68,9.1-2.84,11.02-3.46,11.2c-0.4,0.11-0.73,0.38-0.92,0.74     c-0.19,0.36-0.23,0.79-0.1,1.18C395.91,381.94,406.84,415.96,370.63,435.08z" style="fill:#f8920d"></path>      </g>      <g>        <path d="M435.47,380.97c-10.29,24.58-31.38,36.78-41.18,36.36c8.78-15.21,5.87-30.8,4.72-35.36     c1.1-0.59,2.62-1.7,3.7-3.64c1.56-2.81,1.71-6.41,0.45-10.7c-1.18-4-3.2-6.73-6.01-8.11c-2.12-1.04-4.23-1.08-5.75-0.88     c0.08-4.01-1.12-12.39-11.89-16.21c-4.66-1.65-8.6-1.56-11.7,0.29c-2.51,1.49-3.91,3.82-4.67,5.64     c-2.46-2.22-7.34-4.98-15.02-2.52c-8.91,2.85-10.03,11.53-9.32,16.46c-2.75,2.36-12.23,11.83-18.04,34.31     c-2.29,8.87-1.77,18.15,1.09,26.1c-0.03,0-0.06,0-0.09,0.01c-26.42,4.35-49.69-7-56.75-10.92c2.02-0.15,3.99-0.52,5.85-1.18     c7.68-2.72,12.62-9.34,12.28-16.48c-0.24-5.03-3.72-17.33-30.38-24.47c6.66-21.1,0.35-39.39-4.85-49.54     c-2.07-4.04-4.89-11.42-7.87-19.25c-9.03-23.65-15.92-40.49-22.45-41.65c-8.97-1.63-23.69,18.22-27.24,23.21     c-11.5-3.16-22.3-2.42-30.04-0.98c-1.27-0.95-4.71-4.26-2.62-10.98c0.79-2.53,2.01-4.19,3.64-4.93c2.33-1.06,4.89,0.06,4.91,0.06     c0.38,0.17,0.82,0.18,1.2,0.02c0.39-0.16,0.69-0.48,0.83-0.87c5.54-15.17,24.3-20.47,25.84-20.89     c10.66,7.13,27.04,12.71,52.22,13.19c2.15,0.04,4.28,0.06,6.4,0.06c25.72,0,48.82-3.07,67.13-8.95     c17.53-5.63,30.35-13.56,38.25-23.65c2.74,1.14,31.06,13.35,45.98,36.9c0.16,0.25,0.39,0.44,0.64,0.55     c-1.32,1.78-2.52,3.69-3.57,5.75c-6.62,13.01-6.24,31.9,0.89,43.92c4.54,7.65,11.15,11.82,19.12,12.05     c5.34,0.17,10.34-0.7,14.72-2.45C437.92,328.27,445.31,357.46,435.47,380.97z" style="fill:#f8920d"></path>      </g>      <g>        <path d="M485.07,333.44c-4.76,19.19-19.68,31.85-43.19,36.7c4.52-22.06-1.54-44.59-3.23-50.17     c4.17-2.17,7.63-5.21,10.04-8.99c3.68-5.77,4.24-12.48,1.5-17.96c-6.5-13.01-17.35-9.57-17.46-9.54c-0.78,0.26-1.2,1.1-0.95,1.89     c0.26,0.78,1.1,1.21,1.89,0.96c0.34-0.11,8.52-2.59,13.83,8.03c2.3,4.59,1.8,10.06-1.35,15c-4.73,7.41-14.09,11.64-24.91,11.33     c-8.71-0.25-13.85-5.89-16.63-10.58c-6.65-11.21-6.99-28.85-0.79-41.03c4.72-9.27,12.57-15.51,22.11-17.57     c11.45-2.48,24.35,1.43,36.33,10.99C476.35,273.74,491.83,306.16,485.07,333.44z" style="fill:#f8920d"></path>      </g>      <g>        <path d="M250.59,216.28c-0.15,2.54-0.26,10.84,4.23,15.51c2.05,2.13,4.74,3.21,8,3.21c0.32,0,0.65-0.01,0.99-0.03     c4.32-0.27,7.42-1.78,9.22-4.47c3.38-5.06,1.12-13.01-0.3-17.3c2.25-1.53,3.43-3.66,3.79-5.06c0.21-0.8-0.27-1.61-1.07-1.82     c-0.79-0.21-1.62,0.26-1.84,1.06c-0.05,0.19-1.36,4.67-7.34,4.67c-4.49,0-5.74-3.8-6.09-5.71c-0.05-0.72-0.15-1.19-0.16-1.25     c-0.16-0.76-0.89-1.28-1.66-1.17c-0.78,0.1-1.34,0.78-1.3,1.57c0.02,0.38,0.07,0.79,0.14,1.23c0.05,1.05-0.05,2.75-0.98,4.12     c-0.83,1.22-2.21,1.99-4.12,2.3c-2.24,0.36-3.95,0.1-5.09-0.79c-1.35-1.05-1.52-2.71-1.53-2.77c-0.06-0.82-0.79-1.46-1.6-1.38     c-0.83,0.06-1.45,0.77-1.39,1.6c0.01,0.12,0.23,2.98,2.63,4.88c1.36,1.08,3.09,1.62,5.18,1.62     C250.4,216.29,250.5,216.28,250.59,216.28z" style="fill:#894e0e"></path>      </g>      <g>        <path d="M258.71,212.53c0.2-0.3,0.38-0.6,0.53-0.91c1.42,1.92,3.66,3.42,7.04,3.42c1.4,0,2.63-0.21,3.72-0.54     c1.27,3.9,3.06,10.55,0.53,14.33c-1.27,1.9-3.54,2.93-6.92,3.15c-2.83,0.18-4.99-0.56-6.63-2.26c-4.17-4.33-3.4-13.35-3.36-13.83     C255.86,215.33,257.57,214.2,258.71,212.53z" style="fill:#894e0e"></path>      </g>      <g>        <path d="M194.58,357.23c-0.01-0.16,0.01-0.23,0.12-0.34c1.09-1.09,3.38-1.83,5.22-1.83c0.56,0,1.08,0.07,1.52,0.22     c0.73,0.25,0.77,0.58,0.79,0.74c0.19,1.52-2.05,3.99-4.07,5.63C196.53,360.31,194.67,358.37,194.58,357.23z" style="fill:#ff9494"></path>      </g>    </g>    <g>      <path d="M220.96,152.64c0,7.54-6.12,13.66-13.66,13.66s-13.66-6.12-13.66-13.66c0-7.54,6.12-13.66,13.66-13.66    S220.96,145.09,220.96,152.64z M296.09,131.39c-7.54,0-13.66,6.12-13.66,13.66c0,7.54,6.12,13.66,13.66,13.66    c7.54,0,13.66-6.12,13.66-13.66C309.75,137.51,303.63,131.39,296.09,131.39z M186.36,122.9c0,0,0.86-5.57,8.81-13.98    c7.95-8.41,21.07-16.94,21.07-16.94c-5.91-7.13-27.09-14.72-32.02-13.44c-4.93,1.29-10.71,12.21-10.07,31.5    c0.64,19.29,7.67,24.78,7.67,24.78 M309.75,93.97c-0.46,2.57,8.82,7.5,21.68,19.71c12.86,12.21,17.79,22.29,20.36,24.21    c2.57,1.93,6.86,2.57,9.43-13.5c2.57-16.07-1.71-31.07-6.21-38.57s-4.93-11.79-18.64-7.43c-13.71,4.36-22.71,11.29-22.71,11.29    S310.21,91.4,309.75,93.97z M176.49,202.81l-0.18,11.98c0,0,1.69,13.75,17.33,24.9c15.64,11.14,25.71,14.79,43.88,15.45    s53.62-0.02,71.49-5.5c17.87-5.47,39.56-11.67,49.42-28.1c9.86-16.43,10.45-36.91,10.45-36.91c-5.4,9.23-33.81,23.77-59.13,19.06    c-25.32-4.71-27.82-18.43-50.21-17.14c-22.39,1.29-28.61,19.93-49.61,24.21c-21,4.28-31.71-10.5-31.71-10.5 M181.93,282.37    c3.03,0.45,6.05,0.97,9.07,1.46c1.07-1.14,2.2-2.26,3.35-3.47c0.23-0.25,0.39-0.41,0.51-0.53c0.1-0.14,0.24-0.34,0.44-0.61    c0.61-0.82,1.21-1.66,1.82-2.48c1.28-1.7,2.56-3.36,4.04-4.87c-1.43-5.34-6.72-9.31-13.04-9.31c-7.42,0-13.44,5.47-13.44,12.21    c0,2.87,1.1,5.5,2.92,7.59C178.99,282.14,180.46,282.15,181.93,282.37z M166,268.76c-4.5,0-4.51,7,0,7    C170.5,275.76,170.51,268.76,166,268.76z M232.65,286.05c0,0,3,8.28,6.64,18.56c3.64,10.29,7.5,12.43,13.29,30.21    c5.79,17.79-1.18,34.18-1.18,34.18s9.75,4.92,16.68,8.12c6.93,3.2,17.93,10.41,13.59,21.55c-4.34,11.14-18.59,11.67-18.59,11.67    s3.43,3.95,4.32,4.4c0.89,0.45,12.78,5.36,29.74,9.5c16.96,4.14,26.57-0.97,26.57-0.97s-1.56-4.92-1.7-7.46s-5.14-6,1.44-23.24    s16.86-30.55,16.86-30.55l0.22-5.81c-1.2-18.67-8.66-26.11-8.66-26.11s-0.7-1.02-7.03,2.36c-6.33,3.38-17.18,4.29-17.18,4.29    s3.86,11.57-8.57,11.57c-12.43,0-9.86-7.93-9.86-7.93s-9,6-16.5,0s-3.21-13.71-3.21-13.71l-2.7,0.21c0,0-7.59-4.71-4.5-13.93    s8.27-7.07,8.27-7.07s-1.93-3.43,2.02-8.57c3.95-5.14,19.86-19.76,19.86-19.76s-11.18-7.88-28.1-7.24s-32.22,14.48-32.22,14.48     M367.78,379.89c-9.81-4.08-22.06,2.94-27.35,15.68c-5.3,12.74-1.64,26.37,8.17,30.45c9.81,4.08,22.06-2.94,27.35-15.68    S377.59,383.97,367.78,379.89z M354.14,355.9c-7.08,0-7.09,11,0,11C361.22,366.9,361.23,355.9,354.14,355.9z M374.28,353.12    c-7.08,0-7.09,11,0,11C381.36,364.12,381.37,353.12,374.28,353.12z M388.43,367.05c-7.08,0-7.09,11,0,11    C395.51,378.05,395.52,367.05,388.43,367.05z" style="fill:#fdeac0"></path>    </g>    <g id="mouth">      <path d="M252.14,215.69c0,0,6.04-1.83,7.05-5.59c0,0,3.38,2.49,7.1,3.45c3.72,0.96,5.08,0.31,5.08,0.31    s6.22,16.13-5.11,19.27c-11.33,3.14-14.11-11.31-14.11-11.31" style="fill:#ff4077"></path>    </g>    <g>      <path d="M201.17,396.57c11.1-3.32,5.12-30.3,5.12-30.3s0,0-2.55,0.3c-2.55,0.3-5.59-3.02-5.59-3.02    c-2.97,4.88-6,5.14-6,5.14C189.54,374.74,190.07,399.89,201.17,396.57z" style="fill:#ffa9b1"></path>    </g>    <g>      <path d="M207.24,383.43c0.19-0.11,0.39-0.2,0.6-0.29c0.37-8.14-1.55-16.87-1.55-16.87s0,0-2.55,0.3    c-2.55,0.3-5.59-3.02-5.59-3.02c-2.97,4.88-6,5.14-6,5.14c-0.9,2.1-1.43,6.51-1.27,11.22c5.38,0.51,10.91,1.48,16,3.39    C207,383.34,207.12,383.39,207.24,383.43z" style="fill:#f77c8b"></path>    </g>    <g id="_x30_7_00000182527386753165992510000002513112500469524620_">      <g id="outline_00000062160290304914566010000002691300145249884548_">        <g>          <path d="M171.3,418.37c-6.53,0-12.59-0.4-17.78-0.94c-40.44-4.18-50.02-22.65-54.35-41.99      c-4.52-20.18-0.77-34.45-0.07-36.83c-0.6-4.76-6.2-51.46,3.8-62.84c1.61-1.83,3.55-2.76,5.76-2.76      c15.3,0,36.64,9.61,40.55,11.44c3.59-1.37,21.33-7.46,41.12-2.03c3.55-4.99,18.27-24.82,27.24-23.21      c6.53,1.17,13.42,18,22.45,41.65c2.99,7.82,5.81,15.21,7.87,19.25c6.52,12.74,14.81,38.26-2.96,66.1      C228.14,412.53,196.27,418.37,171.3,418.37z M108.68,276.01c-1.33,0-2.48,0.57-3.51,1.74c-9.43,10.73-3.11,60.3-3.04,60.8      c0.03,0.22,0.01,0.44-0.06,0.66c-0.05,0.15-4.63,14.75,0.04,35.58c4.72,21.08,15.32,35.89,51.73,39.66      c24.35,2.52,68.25,1.99,88.58-29.85c16.97-26.58,9.05-50.95,2.82-63.12c-2.14-4.18-4.86-11.3-8-19.54      c-5.9-15.46-14.81-38.81-20.17-39.77c-5.87-1.06-18.36,13.46-24.86,22.84c-0.37,0.53-1.04,0.77-1.66,0.58      c-21.11-6.21-40.59,1.79-40.78,1.87c-0.39,0.17-0.84,0.15-1.23-0.03C148.29,287.32,124.54,276.01,108.68,276.01z" style="fill:#894e0e"></path>        </g>        <g>          <path d="M103.17,240.25c-0.21,0-0.43,0-0.64-0.01c-3.82-0.14-10.88-1.71-15.37-10.56      c-1.16-1.5-9.99-13.79-1.68-30.41c4.06-8.12,8.96-12.39,14.16-16.92c5.75-5.01,11.69-10.18,17.35-21.34      c7.62-15.01-0.01-19.91-8.84-25.57c-2.9-1.86-5.89-3.78-8.29-6.1c-4.66-4.53-5.98-10.73-3.28-15.44      c3.66-6.38,13.17-8.16,25.43-4.76c12.69,3.52,23.75,13.5,29.58,26.71c5.44,12.33,5.4,25.63-0.1,36.49      c-6.76,13.33-15.03,19.76-22.33,25.43c-5.75,4.47-10.72,8.33-14,14.75c-5.87,11.49-4.76,12.93-2.55,15.8      c0.58,0.75,1.23,1.6,1.87,2.68c0.79,1.34,0.75,2.88-0.12,4.34C112.62,238.24,107.99,240.25,103.17,240.25z M110.65,110.42      c-5.53,0-9.59,1.69-11.48,4.97c-2.01,3.5-0.89,8.24,2.77,11.79c2.18,2.12,5.04,3.95,7.81,5.73c8.79,5.63,18.74,12.02,9.9,29.45      c-5.93,11.68-12.37,17.29-18.05,22.25c-4.96,4.32-9.65,8.41-13.44,16c-7.8,15.6,1.05,26.84,1.43,27.31      c0.07,0.08,0.13,0.18,0.18,0.27c3.8,7.59,9.69,8.93,12.87,9.04c4.28,0.14,8.07-1.66,9.13-3.44c0.39-0.65,0.26-1.02,0.11-1.28      c-0.54-0.92-1.11-1.66-1.66-2.38c-3.02-3.93-4.18-6.38,2.26-18.99c3.58-7.01,9.04-11.26,14.83-15.75      c7.05-5.48,15.04-11.69,21.49-24.42c5.1-10.06,5.11-22.42,0.03-33.92c-5.47-12.39-15.8-21.75-27.63-25.03      C117.31,110.95,113.75,110.42,110.65,110.42z" style="fill:#894e0e"></path>        </g>        <g>          <path d="M173.28,253.83c-0.59,0-1.16-0.36-1.39-0.94c-0.02-0.04-2.12-4.99-13.63-20.22      c-5.62-7.44-7.74-11.57-9.45-14.89c-1.97-3.84-3.4-6.61-9.09-12.63c-3.57-3.78-7.01-5.66-10.28-5.6      c-3.5,0.07-5.57,2.41-5.66,2.51c-0.54,0.62-1.49,0.69-2.11,0.16c-0.63-0.54-0.7-1.48-0.17-2.1c0.12-0.14,2.96-3.43,7.81-3.56      c0.1,0,0.2,0,0.3,0c4.06,0,8.19,2.2,12.29,6.54c5.98,6.33,7.57,9.42,9.57,13.32c1.74,3.38,3.71,7.21,9.17,14.45      c11.88,15.73,13.93,20.71,14.02,20.92c0.31,0.77-0.07,1.64-0.83,1.95C173.66,253.8,173.47,253.83,173.28,253.83z" style="fill:#894e0e"></path>        </g>        <g>          <path d="M160,284.54c-0.25,0-0.5-0.06-0.73-0.19c-2.67-1.49-7.03-6.5-4.46-14.79c1.06-3.41,2.84-5.69,5.31-6.79      c2.21-0.99,4.44-0.75,5.85-0.41c6.87-16.2,26.66-21.24,27.52-21.46c0.81-0.2,1.62,0.29,1.81,1.1c0.2,0.8-0.29,1.62-1.1,1.82      c-0.2,0.05-20.2,5.17-25.95,20.92c-0.14,0.39-0.45,0.71-0.83,0.87c-0.39,0.16-0.82,0.15-1.2-0.02      c-0.02-0.01-2.57-1.12-4.91-0.06c-1.63,0.74-2.86,2.4-3.64,4.93c-2.48,7.98,2.84,11.15,3.07,11.29      c0.71,0.41,0.97,1.33,0.56,2.04C161.03,284.27,160.52,284.54,160,284.54z" style="fill:#894e0e"></path>        </g>        <g>          <path d="M185.18,455.69c-16.92,0-30.59-11.88-38.76-18.98c-1.11-0.97-2.12-1.84-3.02-2.58      c-3.92-3.24-4.89-3.42-10.25-4.41c-4.19-0.77-10.53-1.94-22.31-5.27c-32.28-9.11-59.56-33.47-72.97-65.14      c-14.77-34.88-17.42-71.79-14.55-85.74c0.97-4.71,0.65-7.27,0.27-10.23c-0.59-4.71-1.32-10.57,2.63-26.79      c4.46-18.28,13.59-26,20.66-27.13c5.16-0.82,9.88,1.52,12.93,6.44c4.25,6.83,3.9,12.67,2.67,16.61      c9.22-5.13,22.69-8.57,23.37-8.74c0.81-0.2,1.62,0.28,1.82,1.09c0.2,0.8-0.28,1.62-1.09,1.82c-0.19,0.05-19.4,4.96-27.08,11.41      c-0.6,0.5-1.49,0.46-2.04-0.1c-0.55-0.56-0.57-1.45-0.05-2.04c0.27-0.31,6.53-7.72-0.15-18.46c-2.42-3.9-5.94-5.7-9.91-5.06      c-6.11,0.98-14.1,8.02-18.21,24.88c-3.83,15.68-3.16,21.01-2.57,25.71c0.39,3.09,0.75,6.01-0.31,11.2      c-2.41,11.75-0.67,48.44,14.38,83.97c13.06,30.85,39.61,54.56,71.03,63.43c11.65,3.29,17.9,4.44,22.04,5.21      c5.44,1,7.09,1.31,11.61,5.04c0.92,0.75,1.94,1.65,3.07,2.63c7.85,6.82,21,18.24,36.79,18.24c10.59,0,19.08-3,22.7-8.02      c1.96-2.71,2.4-5.93,1.27-9.29c-3.31-9.92-19.1-18.42-19.26-18.5c-0.73-0.39-1.01-1.3-0.62-2.03c0.39-0.73,1.3-1.01,2.03-0.62      c0.69,0.37,17.02,9.15,20.7,20.2c1.44,4.32,0.86,8.47-1.69,12C206.06,452.31,196.91,455.69,185.18,455.69z" style="fill:#894e0e"></path>        </g>        <g>          <path d="M262.92,411.86c-14.8,0-31.59-10.84-32.42-11.38c-0.69-0.45-0.89-1.38-0.44-2.08      c0.45-0.69,1.38-0.89,2.08-0.44c0.23,0.15,23.17,14.96,37.72,9.81c6.43-2.28,10.56-7.71,10.29-13.51      c-0.21-4.46-3.52-15.54-29.67-22.11c-0.8-0.2-1.29-1.02-1.09-1.82c0.2-0.8,1.02-1.29,1.82-1.09      c28.1,7.07,31.7,19.76,31.94,24.88c0.34,7.13-4.6,13.76-12.28,16.48C268.36,411.49,265.67,411.86,262.92,411.86z" style="fill:#894e0e"></path>        </g>        <g>          <path d="M198.14,365.05c-0.31,0-0.62-0.1-0.88-0.29c-0.9-0.66-5.42-4.09-5.67-7.29c-0.08-1.03,0.26-1.97,0.99-2.7      c2.22-2.22,6.91-3.33,9.83-2.33c1.61,0.55,2.6,1.69,2.79,3.2c0.51,4.11-5.06,8.32-6.19,9.12      C198.75,364.95,198.45,365.05,198.14,365.05z M199.92,355.07c-1.84,0-4.13,0.74-5.22,1.83c-0.11,0.11-0.13,0.18-0.12,0.34      c0.09,1.14,1.95,3.08,3.57,4.42c2.03-1.65,4.26-4.11,4.08-5.63c-0.02-0.16-0.06-0.49-0.79-0.74      C201,355.13,200.48,355.07,199.92,355.07z" style="fill:#894e0e"></path>        </g>        <g>          <path d="M189.86,370.5c-4.09,0-6.28-2.66-6.39-2.8c-0.52-0.65-0.41-1.59,0.23-2.11c0.65-0.52,1.58-0.41,2.1,0.22      c0.1,0.12,2.11,2.43,5.96,1.42c3.97-1.04,4.9-3.98,4.94-4.11c0.14-0.48,0.52-0.86,1-1.01c0.48-0.15,1-0.05,1.39,0.26      c0.03,0.03,3.63,2.89,6.99,2.4c2.46-0.35,2.59-2.13,2.57-2.67c-0.03-0.82,0.61-1.52,1.43-1.56c0.8-0.04,1.52,0.58,1.57,1.4      c0.1,1.74-0.84,5.18-5.14,5.8c-3.07,0.43-6.03-0.95-7.77-1.99c-0.93,1.49-2.78,3.48-6.21,4.38      C191.56,370.39,190.67,370.5,189.86,370.5z" style="fill:#894e0e"></path>        </g>        <g>          <path d="M197.96,399.03c-0.81,0-1.63-0.14-2.45-0.42c-9.74-3.33-5.38-27.46-4.85-30.2      c0.16-0.81,0.95-1.35,1.76-1.19c0.81,0.16,1.35,0.94,1.19,1.76c-1.81,9.36-2.63,24.92,2.87,26.8c1.81,0.62,3.55,0.12,5.17-1.48      c4.43-4.37,6.92-16.15,3.2-27.55c-0.26-0.79,0.17-1.63,0.96-1.89c0.79-0.26,1.63,0.17,1.89,0.96      c4.13,12.66,1.23,25.51-3.95,30.62C202.02,398.14,200.02,399.03,197.96,399.03z" style="fill:#894e0e"></path>        </g>        <g>          <path d="M297.34,349.92c-3.14,0-5.59-0.87-7.28-2.6c-1.33-1.35-1.92-2.98-2.18-4.33      c-4.28,2.22-11.11,3.74-16.23-1.54c-4.99-5.14-4.96-10.12-4.32-12.99c-0.9-0.05-1.94-0.27-2.99-0.85      c-2.45-1.36-4.08-4.17-4.87-8.36c-1.61-8.61,4.49-12.84,8.61-14.14c2.03-6.79,8.94-15.54,20.58-26.04      c10.71-9.66,20.73-22.2,20.83-22.32c0.52-0.65,1.46-0.75,2.11-0.24c0.65,0.52,0.75,1.46,0.24,2.11      c-0.1,0.13-10.27,12.85-21.17,22.68c-11.51,10.38-18.4,19.16-19.9,25.38c-0.13,0.55-0.57,0.98-1.12,1.11      c-0.36,0.08-8.85,2.19-7.22,10.9c0.6,3.19,1.75,5.36,3.34,6.27c1.58,0.9,3.16,0.34,3.23,0.32c0.58-0.21,1.25-0.04,1.66,0.43      c0.41,0.47,0.48,1.15,0.18,1.69c-0.12,0.23-2.98,5.81,2.98,11.95c5.85,6.04,14.19,0.09,14.54-0.17      c0.48-0.35,1.13-0.38,1.64-0.08c0.51,0.3,0.8,0.88,0.73,1.47c0,0.02-0.29,2.84,1.51,4.66c1.35,1.37,3.62,1.91,6.71,1.6      c2.81-0.28,4.84-1.26,6.05-2.92c2.05-2.81,1.21-6.8,1.2-6.84c-0.1-0.46,0.02-0.94,0.32-1.29c0.3-0.36,0.75-0.55,1.22-0.53      c0.11,0,11.3,0.45,25.64-9.38c14.32-9.82,18.84-28.91,18.89-29.1c0.19-0.81,0.98-1.31,1.8-1.13c0.81,0.19,1.31,0.99,1.13,1.8      c-0.19,0.83-4.81,20.41-20.11,30.9c-12,8.23-21.84,9.66-25.73,9.88c0.11,1.88-0.08,4.9-1.92,7.43c-1.73,2.4-4.49,3.8-8.2,4.16      C298.56,349.89,297.94,349.92,297.34,349.92z" style="fill:#894e0e"></path>        </g>        <g>          <path d="M350,443.91c-6.62,0-12.59-1.97-17.59-5.92c-10.93-8.64-15.72-25.66-11.66-41.39      c5.81-22.48,15.29-31.95,18.04-34.31c-0.71-4.93,0.41-13.61,9.32-16.46c7.67-2.46,12.55,0.3,15.02,2.52      c0.76-1.83,2.16-4.15,4.67-5.64c3.1-1.85,7.04-1.94,11.7-0.29c10.76,3.82,11.97,12.2,11.89,16.21c1.52-0.19,3.64-0.16,5.75,0.88      c2.81,1.38,4.84,4.11,6.01,8.11c1.26,4.29,1.11,7.89-0.45,10.7c-1.08,1.94-2.6,3.05-3.7,3.64c1.7,6.76,7.29,37.67-26.98,55.76      C364.22,441.85,356.77,443.91,350,443.91z M341.31,364.12c-0.14,0.11-11.25,8.5-17.64,33.23c-3.72,14.38,0.75,30.48,10.61,38.28      c6.45,5.1,17.99,9.14,36.35-0.55c36.21-19.11,25.28-53.14,25.17-53.48c-0.13-0.39-0.1-0.82,0.1-1.18      c0.19-0.36,0.53-0.63,0.92-0.74c0.62-0.19,6.14-2.11,3.46-11.2c-0.92-3.15-2.41-5.25-4.43-6.25c-2.7-1.34-5.57-0.28-5.6-0.27      c-0.51,0.19-1.1,0.09-1.51-0.26s-0.61-0.91-0.49-1.45c0.09-0.43,2.09-10.79-9.75-14.99c-3.77-1.34-6.84-1.33-9.14,0.03      c-3.34,1.97-4.08,6.25-4.09,6.3c-0.1,0.62-0.58,1.11-1.2,1.23c-0.61,0.12-1.24-0.16-1.57-0.7c-0.16-0.26-4.09-6.42-13.47-3.41      c-9.27,2.97-7.22,13.46-7.13,13.91C342.02,363.17,341.79,363.77,341.31,364.12z" style="fill:#894e0e"></path>        </g>        <g>          <path d="M235.27,430.71c-8.17,0-14.64-2.13-18.83-6.22c-3.63-3.55-5.44-8.45-5.22-14.19      c0.03-0.83,0.74-1.48,1.55-1.44c0.83,0.03,1.47,0.73,1.44,1.55c-0.18,4.86,1.31,8.99,4.32,11.93      c4.07,3.98,10.84,5.81,19.59,5.28c16.46-0.99,20.75-15.84,20.93-16.47c0.22-0.8,1.05-1.26,1.84-1.05      c0.8,0.22,1.27,1.04,1.05,1.84c-0.05,0.18-5,17.55-23.64,18.67C237.27,430.68,236.25,430.71,235.27,430.71z" style="fill:#894e0e"></path>        </g>        <g>          <path d="M309.39,426.71c-26.74,0-47.22-13.05-48.2-13.69c-0.69-0.45-0.89-1.38-0.44-2.07      c0.45-0.69,1.38-0.89,2.07-0.44c0.27,0.17,27.35,17.4,58.94,12.21c0.81-0.14,1.59,0.42,1.72,1.24c0.13,0.82-0.42,1.59-1.24,1.72      C317.84,426.39,313.54,426.71,309.39,426.71z" style="fill:#894e0e"></path>        </g>        <g>          <path d="M440.71,373.4c-0.71,0-1.33-0.5-1.47-1.22c-0.15-0.81,0.38-1.6,1.19-1.75      c24.34-4.62,39.78-17.41,44.63-36.99c6.76-27.28-8.71-59.7-22.79-70.94c-11.98-9.57-24.88-13.47-36.33-10.99      c-9.54,2.06-17.39,8.31-22.11,17.57c-6.2,12.18-5.86,29.81,0.8,41.03c2.78,4.69,7.92,10.32,16.63,10.58      c10.84,0.32,20.18-3.92,24.91-11.33c3.15-4.94,3.65-10.41,1.35-15c-5.36-10.71-13.48-8.15-13.83-8.03      c-0.79,0.26-1.64-0.16-1.9-0.95c-0.26-0.79,0.16-1.64,0.95-1.9c0.11-0.04,10.95-3.48,17.46,9.54c2.74,5.48,2.18,12.19-1.5,17.96      c-5.3,8.31-15.59,13.06-27.52,12.71c-7.97-0.23-14.58-4.4-19.12-12.05c-7.13-12.02-7.51-30.9-0.89-43.92      c5.14-10.09,13.71-16.89,24.15-19.15c12.35-2.67,26.14,1.44,38.84,11.58c16.65,13.3,30.54,46.96,23.83,74      c-3.6,14.51-14.67,33.08-46.99,39.22C440.9,373.39,440.8,373.4,440.71,373.4z" style="fill:#894e0e"></path>        </g>        <g>          <path d="M394.72,420.33c-1.18,0-2.27-0.14-3.25-0.42c-0.8-0.23-1.26-1.06-1.03-1.86c0.23-0.8,1.05-1.26,1.86-1.03      c8.6,2.46,32.12-9.66,43.17-36.07c11.21-26.79,0.05-60.96-0.06-61.3c-0.26-0.79,0.16-1.64,0.95-1.9      c0.79-0.26,1.63,0.16,1.9,0.95c0.48,1.44,11.64,35.57-0.02,63.41c-5.21,12.45-13.69,23.27-23.88,30.47      C407.4,417.52,400.11,420.33,394.72,420.33z" style="fill:#894e0e"></path>        </g>        <g>          <path d="M250.31,216.29c-2.08,0-3.82-0.54-5.18-1.62c-2.4-1.9-2.62-4.76-2.63-4.88c-0.06-0.83,0.57-1.54,1.39-1.6      c0.81-0.06,1.54,0.56,1.6,1.38c0.01,0.06,0.18,1.72,1.53,2.77c1.14,0.89,2.85,1.15,5.09,0.79c1.89-0.31,3.28-1.08,4.11-2.28      c0.94-1.37,1.04-3.07,0.99-4.13c-0.08-0.44-0.12-0.86-0.14-1.24c-0.04-0.78,0.52-1.46,1.3-1.57c0.77-0.1,1.5,0.41,1.66,1.17      c0.01,0.06,0.11,0.53,0.16,1.25c0.35,1.91,1.6,5.71,6.09,5.71c5.98,0,7.28-4.48,7.34-4.67c0.22-0.79,1.04-1.27,1.84-1.06      c0.79,0.21,1.27,1.02,1.07,1.82c-0.62,2.39-3.56,6.91-10.24,6.91c-3.38,0-5.61-1.5-7.04-3.43c-0.15,0.31-0.33,0.61-0.53,0.91      c-1.31,1.92-3.37,3.12-6.12,3.57C251.79,216.23,251.03,216.29,250.31,216.29z" style="fill:#894e0e"></path>        </g>        <g>          <path d="M262.82,235c-3.26,0-5.95-1.08-8-3.21c-5.23-5.44-4.22-15.82-4.17-16.26c0.08-0.82,0.8-1.42,1.65-1.34      c0.82,0.08,1.42,0.82,1.34,1.65c-0.01,0.09-0.91,9.45,3.36,13.88c1.64,1.7,3.81,2.44,6.63,2.26c3.38-0.21,5.64-1.24,6.92-3.15      c2.88-4.31,0.14-12.36-1.03-15.8c-0.27-0.78,0.15-1.64,0.94-1.9c0.79-0.27,1.64,0.15,1.9,0.94c1.31,3.86,4.39,12.9,0.68,18.44      c-1.8,2.69-4.9,4.2-9.22,4.47C263.47,234.99,263.14,235,262.82,235z" style="fill:#894e0e"></path>        </g>        <g>          <path d="M252.72,257.11c-2.12,0-4.25-0.02-6.4-0.06c-57.86-1.12-69.27-29.1-71.49-41.08      c-2.22-11.99,3.32-24.93,4.58-27.65c-1.31-5.6-11.31-53.02,17.63-83.79c29.01-30.85,82.4-25.27,88.4-24.53      c2.97-1.81,19.79-11.89,37.29-18.7c18.42-7.16,26.03-5.28,31.06-2.49c4.8,2.67,16.86,27.54,18.98,48.95      c2.01,20.33-4.41,40.85-5.5,44.14c1.1,4.49,8.86,39-4.51,65.33c-6.91,13.61-21.35,24.02-42.91,30.94      C301.55,254.04,278.44,257.11,252.72,257.11z M269.48,82.12c-19.02,0-50.56,3.53-70.24,24.45      c-29.49,31.36-16.92,81.02-16.78,81.52c0.09,0.35,0.05,0.72-0.11,1.04c-0.07,0.14-6.82,14.08-4.56,26.28      c2.09,11.26,12.95,37.55,68.6,38.63c2.16,0.04,4.31,0.06,6.42,0.06c55.17,0,95.04-14.13,107.28-38.24      c13.51-26.62,4.27-63.29,4.17-63.66c-0.07-0.29-0.06-0.59,0.03-0.87c0.08-0.22,7.58-22.24,5.5-43.29      c-2.13-21.5-14.12-44.77-17.45-46.62c-2.9-1.61-8.93-4.96-28.51,2.66c-18.93,7.36-37.07,18.62-37.25,18.73      c-0.3,0.19-0.66,0.26-1.01,0.21C285.38,83,279,82.12,269.48,82.12z" style="fill:#894e0e"></path>        </g>        <g>          <path d="M179.5,146.55c-0.36,0-0.73-0.13-1.01-0.39c-0.62-0.57-15.08-14.15-13.55-40.48      c1.46-25.3,9.16-40.81,14.15-42.28c4.49-1.32,40.98,4.25,56.29,20.56c0.57,0.6,0.54,1.55-0.07,2.12      c-0.6,0.57-1.55,0.54-2.12-0.07c-14.75-15.7-50.08-20.65-53.26-19.73c-2.72,0.8-10.53,14.18-12,39.58      c-1.44,24.93,12.45,37.97,12.59,38.1c0.61,0.56,0.65,1.51,0.09,2.12C180.31,146.39,179.9,146.55,179.5,146.55z" style="fill:#894e0e"></path>        </g>        <g>          <path d="M405.36,262.11c-0.5,0-0.98-0.25-1.27-0.7c-15.61-24.64-45.91-36.88-46.21-37      c-0.77-0.31-1.15-1.18-0.84-1.95c0.31-0.77,1.17-1.15,1.95-0.84c1.28,0.51,31.5,12.7,47.64,38.18c0.44,0.7,0.24,1.63-0.46,2.07      C405.91,262.04,405.63,262.11,405.36,262.11z" style="fill:#894e0e"></path>        </g>      </g>      <g id="kumis">        <g>          <path d="M224.93,356.26c-0.63,0-1.22-0.4-1.43-1.03c-0.26-0.79,0.17-1.63,0.96-1.89c0.68-0.22,16.86-5.48,24.56-5      c0.83,0.05,1.46,0.76,1.4,1.59s-0.73,1.46-1.59,1.4c-7.09-0.46-23.28,4.8-23.44,4.86C225.24,356.24,225.08,356.26,224.93,356.26      z" style="fill:#894e0e"></path>        </g>        <g>          <path d="M228.57,362.26c-0.69,0-1.31-0.48-1.46-1.17c-0.18-0.81,0.33-1.61,1.14-1.79      c0.64-0.14,15.76-3.47,22.24-1.24c0.78,0.27,1.2,1.12,0.93,1.91c-0.27,0.78-1.13,1.2-1.91,0.93      c-4.72-1.62-16.48,0.41-20.62,1.33C228.79,362.25,228.68,362.26,228.57,362.26z" style="fill:#894e0e"></path>        </g>        <g>          <path d="M128.29,375.55c-0.54,0-1.07-0.29-1.33-0.81c-0.38-0.74-0.09-1.64,0.64-2.02      c0.89-0.46,22.17-11.33,45.79-9.81c0.83,0.05,1.45,0.77,1.4,1.59c-0.05,0.83-0.77,1.44-1.59,1.4c-22.76-1.46-44,9.37-44.21,9.48      C128.75,375.49,128.52,375.55,128.29,375.55z" style="fill:#894e0e"></path>        </g>        <g>          <path d="M142.86,386.26c-0.39,0-0.78-0.15-1.08-0.46c-0.58-0.6-0.56-1.54,0.04-2.12      c0.52-0.5,12.92-12.33,29.35-14.47c0.81-0.11,1.57,0.47,1.68,1.29s-0.47,1.57-1.29,1.68c-15.42,2.01-27.53,13.54-27.65,13.65      C143.61,386.12,143.23,386.26,142.86,386.26z" style="fill:#894e0e"></path>        </g>      </g>      <g id="telinga">        <path d="M111.78,319.62c0,0-4.29-31.71,1.5-31.5s20.36,9.21,20.36,9.21S118.64,310.83,111.78,319.62z      M226.43,297.33c0,0-7.07-21.43-10.5-22.5c-3.43-1.07-12.19,13.28-12.19,13.28C214.69,288.97,226.43,297.33,226.43,297.33z" style="fill:#ffa9b1"></path>      </g>    </g>    <g id="mata_00000062911924474042040740000016173264502552328632_">      <path d="M314.45,187.43c-0.3,0.72-0.6,1.43-0.91,2.15c-1.1,2.08-3.2,3.43-5.38,4.14c-1.2,0.38-2.39,0.43-3.59,0.16    c-1.2-0.05-2.31-0.41-3.35-1.07c-1.05-0.57-1.89-1.34-2.53-2.32c-0.8-0.87-1.33-1.89-1.61-3.06c-0.23-1.07-0.46-2.14-0.69-3.2    c-0.43-1.59-0.43-3.19,0-4.79c0.3-0.72,0.6-1.43,0.91-2.15c1.1-2.08,3.2-3.43,5.38-4.14c1.2-0.38,2.39-0.43,3.59-0.16    c1.2,0.05,2.31,0.41,3.35,1.07c1.05,0.57,1.89,1.34,2.53,2.32c0.8,0.87,1.33,1.89,1.61,3.06c0.23,1.07,0.46,2.14,0.69,3.2    C314.88,184.24,314.88,185.83,314.45,187.43z M216.42,185c-1.09-1.87-3.23-3.65-5.38-4.14c-2.3-0.52-4.89-0.41-6.94,0.91    c-1.87,1.21-3.71,3.1-4.14,5.38c-0.27,1.43-0.53,2.86-0.8,4.3c-0.45,2.42-0.37,4.75,0.91,6.94c1.09,1.87,3.23,3.65,5.38,4.14    c2.3,0.52,4.89,0.41,6.94-0.91c1.87-1.21,3.71-3.1,4.14-5.38c0.27-1.43,0.53-2.86,0.8-4.3C217.77,189.52,217.7,187.19,216.42,185z     M267.89,195.79c-1.25-3.87-4.74-5.59-8.61-4.89c-2.36,0.43-4.71,0.86-7.07,1.29c-3.61,0.66-5.98,5.23-4.89,8.61    c1.25,3.87,4.74,5.59,8.61,4.89c2.36-0.43,4.71-0.86,7.07-1.29C266.61,203.75,268.98,199.17,267.89,195.79z M220.43,336.19    c-9.01,0-9.02,14,0,14C229.44,350.19,229.45,336.19,220.43,336.19z M173.71,343.9c-9.01,0-9.02,14,0,14    C182.72,357.9,182.74,343.9,173.71,343.9z"></path>    </g>  </g></svg>